- 
http://www.Speed.Cd 
       
http://www.Speed.Cd      fast  and The Hottest Private Tracker on the net

(((--Submit for invite!!--)))

Please Seed back to make the speed Faster!!!

------------------nfo--------------------------
-                                                                                                     
       
     
     
       
       
     
     
                                         
                                         
                EXVID                    
                                         
         
                                         
         Filled the Archives             
                                         
         
                                         
                With:                    
                                         
         
                                         
                                    
     E240                           
                                    
     SP               (C) 2009      
                                         
     
     
     
                                                                                  
                                                                                   
               Running.on.Empty.1988.WS.DVDRip.XviD-EXViD                           
                                                                                   
                                                                                  
     
                                                                                               
EXViD aims to iNTERNAL those releases which have been lost in the archives.
EXViD aims to PRE non-internal releases which have poor sources and are likely skipped by others.
 
http://www.imdb.com/title/tt0096018/
Subtitles: EN, AR, FR, IT, EN HI, IT HI
Date: 2011.08

Director: Sidney Lumet

Genres: Crime | Drama | Music

Plot:
The Popes are a family who haven't been able to use their real identity for years. In the late
sixties, the parents set a weapons lab afire in an effort to hinder the government's Vietnam war
campaign. Ever since then, the Popes have been on the run with the authorities never far behind.
Today, their eldest son wants a life of his own although he is aware that would mean that his
parents would either get caught or he will never see them again.

Cast:
Christine Lahti 	 ... 	Annie Pope / Cynthia Manfield
River Phoenix 	 ... 	Danny Pope / Michael Manfield
Judd Hirsch 	 ... 	Arthur Pope / Paul Manfield
Jonas Abry 	 ... 	Harry Pope / Stephen Manfield
Martha Plimpton 	 ... 	Lorna Phillips
Ed Crowley 	 ... 	Mr. Phillips
L.M. Kit Carson 	 ... 	Gus Winant
Steven Hill 	 ... 	Donald Patterson
Augusta Dabney 	 ... 	Abigail Patterson
David Margulies 	 ... 	Dr. Jonah Reiff
Lynne Thigpen 	 ... 	Contact at Eldridge St.
Marcia Jean Kurtz 	 ... 	School Clerk
Sloane Shelton 	 ... 	Mrs. Phillips
Justine Johnston 	 ... 	Librarian
Herb Lovelle 	 ... 	Hospital Clerk

Stats:
Format                           : AVI
Format/Info                      : Audio Video Interleave
File size                        : 1.37 GiB
Duration                         : 1h 51mn
Overall bit rate                 : 1 757 Kbps
Writing application              : Nandub v1.0rc2
Writing library                  : Nandub build 1852/release

Video
ID                               : 0
Format                           : MPEG-4 Visual
Format profile                   : Advanced Simple@L5
Format settings, BVOP            : 1
Format settings, QPel            : No
Format settings, GMC             : No warppoints
Format settings, Matrix          : Default (H.263)
Codec ID                         : XVID
Codec ID/Hint                    : XviD
Duration                         : 1h 51mn
Bit rate                         : 1 629 Kbps
Width                            : 624 pixels
Height                           : 352 pixels
Display aspect ratio             : 16:9
Frame rate                       : 25.000 fps
Color space                      : YUV
Chroma subsampling               : 4:2:0
Bit depth                        : 8 bits
Scan type                        : Progressive
Compression mode                 : Lossy
Bits/(Pixel*Frame)               : 0.297
Stream size                      : 1.27 GiB (93%)
Writing library                  : XviD 64

Audio
ID                               : 1
Format                           : MPEG Audio
Format version                   : Version 1
Format profile                   : Layer 3
Codec ID                         : 55
Codec ID/Hint                    : MP3
Duration                         : 1h 51mn
Bit rate mode                    : Variable
Bit rate                         : 115 Kbps
Nominal bit rate                 : 128 Kbps
Channel(s)                       : 1 channel
Sampling rate                    : 48.0 KHz
Compression mode                 : Lossy
Stream size                      : 91.4 MiB (7%)
Alignment                        : Aligned on interleaves
Interleave, duration             : 24 ms (0.60 video frame)
Interleave, preload duration     : 499 ms
Writing library                  : LAME3.98r
Encoding settings                : -m m -V 4 -q 3 -lowpass 20.5 --abr 128




Release notes:
The 2002 LiGHTNiNG rip was FS. The WS DVD wasn't available until 2005.

enjoy!

Looking for:
75TB+ Archives
DUTCH/FLEMiSH Archives
                                                                                                    
Greets: CRBS EPiSODE FiCO FLS iLS KLASSiGER LiPSYNC MADE NODLABS RUNNER SPRiNTER      
   

                                                                    ASCII DONE BY XX^NFO 2oo9